<?xml version="1.0"?>
<svg xmlns="http://www.w3.org/2000/svg" height="512px" viewBox="0 -20 512 512" width="512px" class=""><g><path d="m491.152344 222.472656h-207.40625c-7.320313 0-13.308594-5.988281-13.308594-13.308594v-67.5625c0-7.316406 5.988281-13.304687 13.308594-13.304687h206.382812c7.320313 0 13.308594 5.988281 13.308594 13.304687l1.023438 67.5625c0 7.320313-5.988282 13.308594-13.308594 13.308594zm0 0" fill="#f45a3c" data-original="#F45A3C" class="" data-old_color="#f45a3c" style="fill:#036A9E"/><path d="m503.4375 141.601562c0-7.316406-5.988281-13.304687-13.308594-13.304687h-25.128906c7.320312 0 13.308594 5.988281 13.308594 13.304687l1.023437 67.5625c0 7.320313-5.988281 13.308594-13.304687 13.308594h25.125c7.320312 0 13.308594-5.988281 13.308594-13.308594zm0 0" fill="#e24a2a" data-original="#E24A2A" class="" data-old_color="#e24a2a" style="fill:#041862"/><path d="m491.152344 463.460938h-208.414063c-7.316406 0-13.304687-5.988282-13.304687-13.308594v-67.5625c0-7.320313 5.988281-13.308594 13.304687-13.308594h207.390625c7.320313 0 13.308594 5.988281 13.308594 13.308594l1.023438 67.5625c0 7.320312-5.988282 13.308594-13.308594 13.308594zm0 0" fill="#f45a3c" data-original="#F45A3C" class="" data-old_color="#f45a3c" style="fill:#036A9E"/><path d="m503.4375 382.589844c0-7.320313-5.988281-13.308594-13.308594-13.308594h-25.128906c7.320312 0 13.308594 5.988281 13.308594 13.308594l1.023437 67.5625c0 7.320312-5.988281 13.308594-13.304687 13.308594h25.125c7.320312 0 13.308594-5.988282 13.308594-13.308594zm0 0" fill="#e24a2a" data-original="#E24A2A" class="" data-old_color="#e24a2a" style="fill:#041862"/><path d="m491.152344 101.714844h-120.96875c-7.320313 0-13.308594-5.988282-13.308594-13.304688v-67.5625c0-7.320312 5.988281-13.308594 13.308594-13.308594h119.945312c7.320313 0 13.308594 5.988282 13.308594 13.308594l1.023438 67.5625c0 7.316406-5.988282 13.304688-13.308594 13.304688zm0 0" fill="#f45a3c" data-original="#F45A3C" class="" data-old_color="#f45a3c" style="fill:#036A9E"/><path d="m503.4375 20.847656c0-7.320312-5.988281-13.308594-13.308594-13.308594h-25.128906c7.320312 0 13.308594 5.988282 13.308594 13.308594l1.023437 67.5625c0 7.316406-5.988281 13.304688-13.304687 13.304688h25.125c7.320312 0 13.308594-5.988282 13.308594-13.304688zm0 0" fill="#e24a2a" data-original="#E24A2A" class="" data-old_color="#e24a2a" style="fill:#041862"/><path d="m138.800781 101.714844h-117.953125c-7.320312 0-13.308594-5.988282-13.308594-13.304688v-67.5625c0-7.320312 5.988282-13.308594 13.308594-13.308594h116.929688c7.316406 0 13.304687 5.988282 13.304687 13.308594l1.023438 67.5625c0 7.316406-5.988281 13.304688-13.304688 13.304688zm0 0" fill="#f45a3c" data-original="#F45A3C" class="" data-old_color="#f45a3c" style="fill:#036A9E"/><path d="m151.082031 20.847656c0-7.320312-5.988281-13.308594-13.308593-13.308594h-25.125c7.316406 0 13.304687 5.988282 13.304687 13.308594l1.027344 67.5625c0 7.316406-5.988281 13.304688-13.308594 13.304688h25.128906c7.316407 0 13.304688-5.988282 13.304688-13.304688zm0 0" fill="#e24a2a" data-original="#E24A2A" class="" data-old_color="#e24a2a" style="fill:#041862"/><path d="m313.46875 101.714844h-117.953125c-7.320313 0-13.308594-5.988282-13.308594-13.304688v-67.5625c0-7.320312 5.988281-13.308594 13.308594-13.308594h116.929687c7.320313 0 13.308594 5.988282 13.308594 13.308594l1.023438 67.5625c0 7.316406-5.988282 13.304688-13.308594 13.304688zm0 0" fill="#f45a3c" data-original="#F45A3C" class="" data-old_color="#f45a3c" style="fill:#036A9E"/><path d="m325.753906 20.847656c0-7.320312-5.988281-13.308594-13.308594-13.308594h-25.128906c7.320313 0 13.308594 5.988282 13.308594 13.308594l1.023438 67.5625c0 7.316406-5.988282 13.304688-13.308594 13.304688h25.128906c7.320312 0 13.308594-5.988282 13.308594-13.304688zm0 0" fill="#e24a2a" data-original="#E24A2A" class="" data-old_color="#e24a2a" style="fill:#041862"/><path d="m226.242188 222.472656h-205.394532c-7.320312 0-13.308594-5.988281-13.308594-13.308594v-67.5625c0-7.316406 5.988282-13.304687 13.308594-13.304687h204.375c7.316406 0 13.304688 5.988281 13.304688 13.304687l1.023437 67.5625c0 7.320313-5.988281 13.308594-13.308593 13.308594zm0 0" fill="#f45a3c" data-original="#F45A3C" class="" data-old_color="#f45a3c" style="fill:#036A9E"/><path d="m226.242188 463.460938h-205.394532c-7.320312 0-13.308594-5.988282-13.308594-13.308594v-67.5625c0-7.320313 5.988282-13.308594 13.308594-13.308594h204.375c7.316406 0 13.304688 5.988281 13.304688 13.308594l1.023437 67.5625c0 7.320312-5.988281 13.308594-13.308593 13.308594zm0 0" fill="#f45a3c" data-original="#F45A3C" class="" data-old_color="#f45a3c" style="fill:#036A9E"/><path d="m238.527344 382.589844c0-7.320313-5.988282-13.308594-13.308594-13.308594h-25.125c7.316406 0 13.304688 5.988281 13.304688 13.308594l1.027343 67.5625c0 7.320312-5.992187 13.308594-13.308593 13.308594h25.125c7.320312 0 13.308593-5.988282 13.308593-13.308594zm0 0" fill="#e24a2a" data-original="#E24A2A" class="" data-old_color="#e24a2a" style="fill:#041862"/><path d="m138.800781 342.15625h-117.953125c-7.320312 0-13.308594-5.988281-13.308594-13.308594v-67.5625c0-7.316406 5.988282-13.304687 13.308594-13.304687h116.929688c7.316406 0 13.304687 5.988281 13.304687 13.304687l1.023438 67.5625c0 7.320313-5.988281 13.308594-13.304688 13.308594zm0 0" fill="#f45a3c" data-original="#F45A3C" class="" data-old_color="#f45a3c" style="fill:#036A9E"/><path d="m151.082031 261.285156c0-7.316406-5.988281-13.304687-13.308593-13.304687h-26.132813c7.320313 0 13.308594 5.988281 13.308594 13.304687l1.023437 67.5625c0 7.320313-5.988281 13.308594-13.304687 13.308594h26.132812c7.316407 0 13.304688-5.988281 13.304688-13.308594zm0 0" fill="#e24a2a" data-original="#E24A2A" class="" data-old_color="#e24a2a" style="fill:#041862"/><path d="m491.152344 342.15625h-119.960938c-7.320312 0-13.308594-5.988281-13.308594-13.308594v-67.5625c0-7.316406 5.988282-13.304687 13.308594-13.304687h118.9375c7.320313 0 13.308594 5.988281 13.308594 13.304687l1.023438 67.5625c0 7.320313-5.988282 13.308594-13.308594 13.308594zm0 0" fill="#f45a3c" data-original="#F45A3C" class="" data-old_color="#f45a3c" style="fill:#036A9E"/><path d="m503.4375 261.285156c0-7.316406-5.988281-13.304687-13.308594-13.304687h-25.128906c7.320312 0 13.308594 5.988281 13.308594 13.304687l1.023437 67.5625c0 7.320313-5.988281 13.308594-13.304687 13.308594h25.125c7.320312 0 13.308594-5.988281 13.308594-13.308594zm0 0" fill="#e24a2a" data-original="#E24A2A" class="" data-old_color="#e24a2a" style="fill:#041862"/><path d="m404.261719 235.5c0 81.882812-66.378907 148.261719-148.261719 148.261719s-148.265625-66.378907-148.265625-148.261719 66.382813-148.265625 148.265625-148.265625 148.261719 66.382813 148.261719 148.265625zm0 0" fill="#fff4f1" data-original="#FFF4F1" class=""/><path d="m256 87.234375c-4.234375 0-8.421875.1875-12.5625.535156 76 6.378907 135.699219 70.078125 135.699219 147.730469 0 77.648438-59.699219 141.347656-135.699219 147.726562 4.140625.347657 8.328125.535157 12.5625.535157 81.882812 0 148.261719-66.378907 148.261719-148.261719s-66.378907-148.265625-148.261719-148.265625zm0 0" fill="#ecedef" data-original="#ECEDEF" class=""/><g fill="#18191b"><path d="m20.84375 109.253906h117.957031c11.492188 0 20.84375-9.351562 20.84375-20.84375 0-.039062 0-.078125 0-.117187l-1.023437-67.511719c-.035156-11.464844-9.371094-20.78125-20.847656-20.78125h-116.929688c-11.492188 0-20.84375 9.351562-20.84375 20.847656v67.5625c0 11.492188 9.351562 20.84375 20.84375 20.84375zm-5.765625-88.40625c0-3.183594 2.585937-5.769531 5.765625-5.769531h116.929688c3.183593 0 5.769531 2.585937 5.769531 5.769531 0 .039063 0 .074219.003906.113282l1.023437 67.492187c-.023437 3.160156-2.605468 5.726563-5.769531 5.726563h-117.957031c-3.179688 0-5.765625-2.589844-5.765625-5.769532zm0 0" data-original="#000000" class="" data-old_color="#000000" style="fill:#060606"/><path d="m370.183594 109.253906h120.972656c11.492188 0 20.84375-9.351562 20.84375-20.84375 0-.039062 0-.078125 0-.117187l-1.023438-67.507813c-.03125-11.464844-9.371093-20.785156-20.847656-20.785156h-119.945312c-11.492188 0-20.84375 9.351562-20.84375 20.847656v67.558594c0 11.496094 9.351562 20.847656 20.84375 20.847656zm-5.765625-88.40625c0-3.183594 2.585937-5.769531 5.765625-5.769531h119.945312c3.183594 0 5.769532 2.585937 5.769532 5.769531 0 .039063 0 .074219.003906.113282l1.019531 67.492187c-.023437 3.160156-2.601563 5.726563-5.765625 5.726563h-120.972656c-3.179688 0-5.765625-2.589844-5.765625-5.769532zm0 0" data-original="#000000" class="" data-old_color="#000000" style="fill:#060606"/><path d="m512 209.164062c0-.035156 0-.074218 0-.113281l-1.023438-67.507812c-.035156-11.46875-9.371093-20.785157-20.847656-20.785157h-29.558594c-4.164062 0-7.539062 3.375-7.539062 7.539063 0 4.160156 3.375 7.539063 7.539062 7.539063h29.558594c3.183594 0 5.769532 2.585937 5.769532 5.765624 0 .039063 0 .078126.003906.117188l1.019531 67.492188c-.023437 3.160156-2.601563 5.722656-5.765625 5.722656h-80.710938c-3.953124-29.839844-16.382812-57.042969-34.785156-79.097656h54.648438c4.164062 0 7.539062-3.378907 7.539062-7.539063 0-4.164063-3.375-7.539063-7.539062-7.539063h-69.027344c-9.066406-8.324218-19.117188-15.589843-29.957031-21.601562 1.921875-3.1875 2.992187-6.886719 2.992187-10.746094 0-.039062 0-.078125 0-.117187l-1.023437-67.511719c-.035157-11.464844-9.375-20.78125-20.847657-20.78125h-116.929687c-11.496094 0-20.847656 9.351562-20.847656 20.847656v67.5625c0 4.457032 1.414062 8.589844 3.804687 11.980469-10 5.761719-19.304687 12.605469-27.753906 20.367187h-129.875c-11.492188 0-20.84375 9.351563-20.84375 20.84375v67.5625c0 11.496094 9.351562 20.847657 20.84375 20.847657h79.460938c-.0625 1.820312-.105469 3.648437-.105469 5.488281 0 1.652344.035156 3.296875.085937 4.9375h-79.441406c-11.492188 0-20.84375 9.355469-20.84375 20.847656v67.5625c0 11.496094 9.351562 20.847656 20.84375 20.847656h117.957031c3.171875 0 6.269531-.761718 9.078125-2.128906 5.296875 5.109375 10.953125 9.851563 16.925782 14.179688h-143.960938c-11.492188-.003906-20.84375 9.351562-20.84375 20.84375v67.5625c0 11.496094 9.351562 20.847656 20.84375 20.847656h26.515625c4.164063 0 7.539063-3.375 7.539063-7.539062 0-4.164063-3.375-7.539063-7.539063-7.539063h-26.515625c-3.179688 0-5.765625-2.589844-5.765625-5.769531v-67.5625c0-3.179688 2.585937-5.769532 5.765625-5.769532h169.605469c12.714843 5.921876 26.355469 10.175782 40.640625 12.480469l.921875 60.898438c-.023438 3.160156-2.601563 5.722656-5.769531 5.722656h-146.421876c-4.164062 0-7.535156 3.375-7.535156 7.539063 0 4.164062 3.371094 7.539062 7.535156 7.539062h146.421876c11.496093 0 20.847656-9.351562 20.847656-20.847656 0-.039063 0-.078125 0-.113282l-.894532-59.054687c3.242188.203125 6.511719.316406 9.804688.316406 1.972656 0 3.9375-.046875 5.894531-.121093v58.972656c0 11.496094 9.351563 20.847656 20.847657 20.847656h208.414062c11.492188 0 20.84375-9.351562 20.84375-20.847656 0-.039063 0-.078125 0-.113282l-1.023438-67.511718c-.035156-11.464844-9.371093-20.78125-20.847656-20.78125h-142.933594c6.347657-4.601563 12.335938-9.664063 17.914063-15.144532 1.375 1.871094 3.582031 3.09375 6.082031 3.09375h119.964844c11.492188 0 20.84375-9.351562 20.84375-20.847656 0-.035156 0-.074218 0-.113281l-1.023438-67.511719c-.035156-11.464844-9.371093-20.78125-20.847656-20.78125h-78.414062c.050781-1.640625.085937-3.285156.085937-4.941406 0-1.835938-.042969-3.664062-.105469-5.488281h79.460938c11.492188 0 20.84375-9.351563 20.84375-20.847657zm-322.253906-120.753906v-67.5625c0-3.183594 2.585937-5.769531 5.769531-5.769531h116.929687c3.179688 0 5.769532 2.585937 5.769532 5.769531v.113282l1.023437 67.492187c-.011719 1.496094-.617187 2.898437-1.640625 3.949219-18.902344-8.167969-39.730468-12.703125-61.597656-12.703125-22.632812 0-44.152344 4.855469-63.578125 13.570312-1.605469-1.023437-2.675781-2.816406-2.675781-4.859375zm-168.902344 126.523438c-3.179688 0-5.765625-2.585938-5.765625-5.769532v-67.5625c0-3.179687 2.585937-5.765624 5.765625-5.765624h115.496094c-18.402344 22.054687-30.832032 49.257812-34.785156 79.097656zm-5.765625 113.914062v-67.5625c0-3.179687 2.585937-5.769531 5.765625-5.769531h80.636719c3.839843 29.808594 16.136719 57.007813 34.398437 79.101563h-115.035156c-3.179688 0-5.765625-2.585938-5.765625-5.769532zm475.050781 47.972656c3.183594 0 5.769532 2.589844 5.769532 5.769532 0 .039062 0 .074218.003906.113281l1.019531 67.496094c-.023437 3.160156-2.601563 5.722656-5.765625 5.722656h-208.414062c-3.183594 0-5.769532-2.589844-5.769532-5.769531v-60.269532c15.71875-2.121093 30.699219-6.601562 44.578125-13.0625zm-234.128906-.59375c-77.597656 0-140.726562-63.128906-140.726562-140.726562 0-77.59375 63.128906-140.726562 140.726562-140.726562s140.726562 63.132812 140.726562 140.726562c0 77.597656-63.128906 140.726562-140.726562 140.726562zm234.128906-120.710937c3.183594 0 5.769532 2.589844 5.769532 5.769531 0 .039063 0 .078125.003906.113282l1.019531 67.496093c-.023437 3.160157-2.601563 5.722657-5.765625 5.722657h-115.035156c18.261718-22.09375 30.558594-49.292969 34.398437-79.101563zm0 0" data-original="#000000" class="" data-old_color="#000000" style="fill:#060606"/></g><path d="m227.691406 236.25v-52.121094c0-15.605468 12.699219-28.304687 28.308594-28.304687s28.304688 12.699219 28.304688 28.304687v52.121094h26.640624v-52.121094c0-30.21875-24.726562-54.945312-54.945312-54.945312-30.222656 0-54.945312 24.726562-54.945312 54.945312v52.121094zm0 0" fill="#4890e3" data-original="#4890E3" class=""/><path d="m298.488281 329.699219h-84.976562c-11.671875 0-21.21875-9.546875-21.21875-21.214844v-78.886719c0-11.671875 9.546875-21.21875 21.21875-21.21875h84.976562c11.667969 0 21.21875 9.546875 21.21875 21.21875v78.886719c0 11.667969-9.550781 21.214844-21.21875 21.214844zm0 0" fill="#f9cd45" data-original="#F9CD45" class="active-path" data-old_color="#f9cd45" style="fill:#FBF600"/><path d="m298.488281 208.378906h-25.128906c11.671875 0 21.21875 9.546875 21.21875 21.21875v78.882813c0 11.671875-9.546875 21.21875-21.21875 21.21875h25.128906c11.667969 0 21.21875-9.550781 21.21875-21.21875v-78.882813c0-11.671875-9.546875-21.21875-21.21875-21.21875zm0 0" fill="#f8b53c" data-original="#F8B53C" class="" data-old_color="#f8b53c" style="fill:#FFAB0F"/><path d="m256 243.304688c-9.476562 0-17.15625 7.679687-17.15625 17.15625v34.316406h34.3125v-34.316406c0-9.476563-7.679688-17.15625-17.15625-17.15625zm0 0" fill="#646464" data-original="#646464" class="" style="fill:#646464"/><path d="m318.484375 208.960938v-24.832032c0-34.453125-28.03125-62.484375-62.484375-62.484375s-62.484375 28.03125-62.484375 62.484375v24.832032c-5.398437 5.230468-8.761719 12.542968-8.761719 20.636718v16.59375c0 4.160156 3.375 7.535156 7.539063 7.535156 4.164062 0 7.539062-3.375 7.539062-7.535156v-16.59375c0-7.542968 6.136719-13.679687 13.675781-13.679687h84.980469c7.542969 0 13.679688 6.136719 13.679688 13.679687v78.882813c0 7.542969-6.136719 13.679687-13.679688 13.679687h-84.980469c-7.539062 0-13.675781-6.136718-13.675781-13.679687v-32.027344c0-4.164063-3.375-7.539063-7.539062-7.539063-4.164063 0-7.539063 3.375-7.539063 7.539063v32.027344c0 15.855469 12.898438 28.757812 28.753906 28.757812h84.980469c15.855469 0 28.753907-12.902343 28.753907-28.757812v-78.882813c.003906-8.089844-3.359376-15.40625-8.757813-20.636718zm-41.714844-8.121094h-41.539062v-16.710938c0-11.449218 9.316406-20.765625 20.769531-20.765625 11.449219 0 20.769531 9.316407 20.769531 20.765625zm15.074219 0v-16.710938c0-19.761718-16.078125-35.84375-35.84375-35.84375s-35.847656 16.082032-35.847656 35.84375v16.710938h-6.640625c-1.679688 0-3.320313.152344-4.921875.429687v-17.140625c0-26.140625 21.269531-47.40625 47.410156-47.40625s47.40625 21.265625 47.40625 47.40625v17.140625c-1.597656-.277343-3.238281-.429687-4.917969-.429687zm0 0" data-original="#000000" class="" data-old_color="#000000" style="fill:#060606"/><path d="m273.15625 302.3125c4.164062 0 7.539062-3.375 7.539062-7.535156v-34.316406c0-13.617188-11.078124-24.695313-24.695312-24.695313s-24.695312 11.078125-24.695312 24.695313v34.316406c0 4.160156 3.375 7.535156 7.539062 7.535156zm-26.777344-41.851562c0-5.304688 4.316406-9.617188 9.621094-9.617188s9.617188 4.3125 9.617188 9.617188v26.777343h-19.238282zm0 0" data-original="#000000" class="" data-old_color="#000000" style="fill:#060606"/></g> </svg>
