<?xml version="1.0" encoding="iso-8859-1"?>
<!-- Generator: Adobe Illustrator 19.0.0, SVG Export Plug-In . SVG Version: 6.00 Build 0)  -->
<svg version="1.1" id="Capa_1" xmlns="http://www.w3.org/2000/svg" xmlns:xlink="http://www.w3.org/1999/xlink" x="0px" y="0px"
	 viewBox="0 0 512 512" style="enable-background:new 0 0 512 512;" xml:space="preserve">
<path style="fill:#F2B844;" d="M256.002,7.512L256.002,7.512L256.002,7.512c-108.058,0-195.657,85.09-195.657,190.055v191.308
	c0,4.555,3.801,8.248,8.491,8.248h187.166h187.166c4.689,0,8.491-3.693,8.491-8.248V197.567
	C451.658,92.602,364.059,7.512,256.002,7.512z"/>
<path style="fill:#F3D1BB;" d="M108.807,203.95v33.323h-1.937c-16.106,0-29.162,13.056-29.162,29.162l0,0
	c0,16.106,13.056,29.162,29.162,29.162h2.024c2.165,56.774,48.865,102.138,106.169,102.138h20.803c0,5.035,0,9.041,0,9.05
	c0,9.695-0.124,9.414-9.381,10.717c-7.14,1.005-13.988,3.767-19.835,7.985c-11.571,8.346-18.572,22-18.572,36.269v42.732h135.848
	v-42.732c0-14.268-7.001-27.923-18.572-36.269c-5.847-4.217-12.695-6.98-19.835-7.985c-9.258-1.303-9.381-1.022-9.381-10.717
	c0-0.01,0-4.016,0-9.05h20.803c58.684,0,106.256-47.573,106.256-106.256V203.95H108.807z"/>
<path style="fill:#E59E2C;" d="M451.658,197.57v191.311c0,4.548-3.802,8.239-8.481,8.239h-68.262c4.693,0,8.495-3.691,8.495-8.239
	V197.57c0-93.651-69.737-171.496-161.529-187.171c11.073-1.898,22.479-2.887,34.124-2.887
	C364.067,7.512,451.658,92.608,451.658,197.57z"/>
<path style="fill:#E23640;" d="M323.922,461.758v42.73H188.081v-42.73c0-14.272,6.995-27.925,18.564-36.267
	c3.736-2.695,7.88-4.794,12.251-6.219c2.467-0.807,5.013-1.402,7.59-1.77c3.776-0.533,6.031-0.791,7.379-1.582l1.731,0.384
	l4.363,2.467c9.862,5.593,21.917,5.632,31.818,0.11l4.629-2.577l1.731-0.384c1.347,0.791,3.603,1.05,7.379,1.582
	c2.577,0.368,5.123,0.963,7.59,1.77c4.371,1.426,8.514,3.525,12.251,6.219C316.927,433.833,323.922,447.486,323.922,461.758z"/>
<g>
	<circle style="fill:#E8979F;" cx="170.038" cy="320.26" r="15.831"/>
	<circle style="fill:#E8979F;" cx="341.958" cy="320.26" r="15.831"/>
</g>
<path style="fill:#FFFFFF;" d="M218.626,316.248v1.713c0,20.642,16.733,37.375,37.375,37.375l0,0
	c20.642,0,37.375-16.733,37.375-37.375v-1.713H218.626z"/>
<path style="fill:#8FBA1E;" d="M274.125,74.379h-36.248c-68.022,0-129.523,57.49-129.523,128.408h6.767
	c14.526-38.004,40.255-60.969,66.033-74.845c46.552-25.059,103.143-25.059,149.695,0c25.777,13.876,51.506,36.84,66.033,74.845
	h6.767C403.648,131.869,342.147,74.379,274.125,74.379z"/>
<circle cx="256.038" cy="458.21" r="5.776"/>
<circle cx="256.038" cy="474.24" r="5.776"/>
<g>
	<path style="fill:#E8C0A8;" d="M427.039,286.235c-5.327,5.758-12.948,9.362-21.41,9.362h-1.728v-58.324h1.728
		c16.106,0,29.162,13.056,29.162,29.162l0,0C434.791,274.078,431.85,281.035,427.039,286.235L427.039,286.235z"/>
	<path style="fill:#E8C0A8;" d="M405.627,237.273h-2.428v-29.697h-42.007v83.899c0,58.69-47.564,106.254-106.254,106.254h42.007
		c57.297,0,104.001-45.354,106.167-102.133h2.515c8.462,0,16.083-3.605,21.41-9.362c4.811-5.2,7.752-12.156,7.752-19.8l0,0
		C434.789,250.329,421.733,237.273,405.627,237.273z"/>
</g>
<path d="M255.998,0C143.97,0,52.83,88.628,52.83,197.567v191.308c0,8.69,7.179,15.76,16.003,15.76h13.885
	c4.149,0,7.512-3.363,7.512-7.512s-3.363-7.512-7.512-7.512H68.833c-0.577,0-0.979-0.387-0.979-0.735V197.567
	c0-100.654,84.401-182.542,188.145-182.542c103.743,0,188.143,81.888,188.143,182.542v191.308c0,0.348-0.402,0.735-0.978,0.735
	h-88.726c30.557-17.974,52.027-49.803,55.704-86.794c8.529-1.067,16.516-5.112,22.407-11.479l0.001-0.001
	c6.287-6.796,9.749-15.64,9.749-24.901c0-18.498-13.769-33.832-31.594-36.314c0,0,0.452-26.439,0.452-27.334
	c0-54.833-35.516-105.688-88.377-126.547c-3.857-1.522-8.222,0.371-9.745,4.231c-1.523,3.859,0.372,8.222,4.23,9.745
	c38.984,15.383,67.397,48.95,76.087,87.637c-13.755-23.874-33.504-42.831-58.946-56.526c-23.932-12.883-51.046-19.692-78.408-19.692
	c-27.363,0-54.477,6.809-78.408,19.692c-25.495,13.724-45.273,32.73-59.032,56.675c4.975-22.587,16.726-43.541,34.287-60.63
	c23.17-22.549,54.163-35.481,85.03-35.481h28.641c4.149,0,7.512-3.363,7.512-7.512s-3.363-7.512-7.512-7.512h-28.641
	c-34.747,0-69.559,14.484-95.509,39.738c-26.778,26.06-41.526,60.218-41.526,96.182c0,0.895,0.452,27.397,0.452,27.397
	c-17.586,2.693-31.099,17.924-31.099,36.251c0,18.519,13.802,33.867,31.658,36.322c3.66,37.015,25.135,68.869,55.705,86.853h-22.252
	c-4.149,0-7.512,3.363-7.512,7.512s3.363,7.512,7.512,7.512h67.973c3.875,0.401,7.805,0.613,11.784,0.613h13.291v1.538
	c0,0.89,0,1.943-0.018,2.865c-0.661,0.1-1.392,0.203-2.086,0.299l-0.812,0.114c-8.328,1.172-16.345,4.399-23.183,9.331
	c-13.581,9.796-21.689,25.632-21.689,42.362v42.732c0,4.149,3.363,7.512,7.512,7.512h135.849c4.149,0,7.512-3.363,7.512-7.512
	v-42.732c-0.001-16.729-8.11-32.565-21.689-42.361c-6.838-4.932-14.855-8.158-23.182-9.331l-0.813-0.114
	c-0.694-0.097-1.425-0.199-2.085-0.299c-0.019-0.922-0.019-1.975-0.019-2.865v-1.538h13.29c3.994,0,7.939-0.209,11.828-0.613h134.4
	c8.824,0,16.002-7.07,16.002-15.76V197.567C459.166,88.628,368.026,0,255.998,0z M411.408,245.57
	c9.139,2.536,15.867,10.93,15.867,20.865c0,5.467-2.043,10.687-5.753,14.698c-2.797,3.022-6.274,5.129-10.113,6.181L411.408,245.57
	L411.408,245.57z M101.082,287.3c-9.139-2.536-15.866-10.93-15.866-20.865s6.727-18.328,15.866-20.865V287.3z M184.712,134.557
	c21.75-11.708,46.4-17.897,71.286-17.897s49.536,6.188,71.287,17.897c26.692,14.368,46.396,35.171,58.737,61.881H125.974
	C138.315,169.728,158.02,148.925,184.712,134.557z M195.586,496.976v-35.22c0-11.915,5.777-23.196,15.454-30.176
	c0.288-0.208,0.588-0.396,0.881-0.595l-3.409,6.352c-1.139,2.122-1.191,4.661-0.141,6.828c1.05,2.167,3.076,3.699,5.447,4.12
	l15.816,2.806l-7.097,10.439c-1.619,2.383-1.734,5.481-0.294,7.977l15.843,27.467h-42.5V496.976z M298.177,448.286
	c2.371-0.421,4.397-1.953,5.447-4.12s0.998-4.706-0.141-6.828l-3.41-6.353c0.294,0.199,0.594,0.388,0.882,0.596
	c9.677,6.98,15.454,18.261,15.455,30.176v35.22h-42.501l15.843-27.467c1.439-2.496,1.324-5.594-0.295-7.977l-7.096-10.439
	L298.177,448.286z M285.342,435.304l-17.028,3.021c-2.508,0.445-4.62,2.131-5.61,4.478c-0.989,2.347-0.722,5.036,0.71,7.142
	l10.97,16.136l-17.82,30.893h-1.133l-17.819-30.893l10.97-16.136c1.432-2.106,1.699-4.795,0.709-7.142
	c-0.989-2.347-3.101-4.033-5.609-4.478l-17.028-3.021l5.991-11.164c0.375-0.076,0.745-0.156,1.105-0.244
	c3.833,2.02,12.113,5.589,22.799,5.589c6.677,0,14.292-1.402,22.335-5.443c0.154,0.034,0.309,0.067,0.466,0.098L285.342,435.304z
	 M243.276,411.806c0.076-1.214,0.094-2.509,0.098-3.906h25.25c0.003,1.514,0.023,2.908,0.117,4.209
	C257.635,416.367,248.179,413.851,243.276,411.806z M307.908,389.61h-103.82c-49.303-5.475-87.773-47.392-87.773-98.131v-80.016
	H395.68v80.016C395.681,342.218,357.211,384.135,307.908,389.61z"/>
<path d="M293.373,308.736h-74.75c-4.149,0-7.512,3.363-7.512,7.512v1.713c0,24.751,20.136,44.887,44.887,44.887
	c24.751,0,44.887-20.136,44.887-44.887v-1.713C300.885,312.099,297.522,308.736,293.373,308.736z M255.998,347.824
	c-14.482,0-26.59-10.364-29.297-24.063h58.595C282.588,337.46,270.48,347.824,255.998,347.824z"/>
<path d="M208.113,265.275L208.113,265.275c-4.237,0-7.704-3.467-7.704-7.704v-23.842c0-4.237,3.467-7.704,7.704-7.704l0,0
	c4.237,0,7.704,3.467,7.704,7.704v23.842C215.817,261.808,212.35,265.275,208.113,265.275z"/>
<path d="M301.745,265.275L301.745,265.275c-4.237,0-7.704-3.467-7.704-7.704v-23.842c0-4.237,3.467-7.704,7.704-7.704l0,0
	c4.237,0,7.704,3.467,7.704,7.704v23.842C309.449,261.808,305.982,265.275,301.745,265.275z"/>
<path d="M256.523,293.573c-9.527,0-18.083-5.67-21.794-14.445c-1.676-3.961,0.177-8.53,4.138-10.205s8.53,0.176,10.205,4.139
	c1.269,3,4.193,4.938,7.451,4.938c3.097,0,5.964-1.808,7.301-4.606c1.854-3.881,6.505-5.521,10.383-3.667
	c3.88,1.854,5.522,6.503,3.667,10.383C273.965,288.288,265.584,293.573,256.523,293.573z"/>
<g>
</g>
<g>
</g>
<g>
</g>
<g>
</g>
<g>
</g>
<g>
</g>
<g>
</g>
<g>
</g>
<g>
</g>
<g>
</g>
<g>
</g>
<g>
</g>
<g>
</g>
<g>
</g>
<g>
</g>
</svg>
